<?xml version="1.0" encoding="UTF-8" standalone="no"?>
<!-- Created with Inkscape (http://www.inkscape.org/) -->

<svg
   xmlns:dc="http://purl.org/dc/elements/1.1/"
   xmlns:cc="http://creativecommons.org/ns#"
   xmlns:rdf="http://www.w3.org/1999/02/22-rdf-syntax-ns#"
   xmlns:svg="http://www.w3.org/2000/svg"
   xmlns="http://www.w3.org/2000/svg"
   xmlns:sodipodi="http://sodipodi.sourceforge.net/DTD/sodipodi-0.dtd"
   xmlns:inkscape="http://www.inkscape.org/namespaces/inkscape"
   id="svg2"
   sodipodi:docname="74-kid-jumprope-colour.svg"
   xml:space="preserve"
   viewBox="0 0 261.52 200.31"
   version="1.1"
   inkscape:version="0.91 r13725"><defs
     id="defs6"><clipPath
       id="clipPath200"
       clipPathUnits="userSpaceOnUse"><path
         id="path202"
         clip-rule="evenodd"
         d="m72.5 507.32h208.22v-159.25h-208.22v159.25z" /></clipPath><clipPath
       id="clipPath206"
       clipPathUnits="userSpaceOnUse"><path
         id="path208"
         d="m0 792h612v-792h-612v792z" /></clipPath><clipPath
       id="clipPath212"
       clipPathUnits="userSpaceOnUse"><path
         id="path214"
         d="m0.06 792h612v-792h-612v792z" /></clipPath><clipPath
       id="clipPath228"
       clipPathUnits="userSpaceOnUse"><path
         id="path230"
         d="m182.93 477.67-3.335 1.214c-0.725 0.264-1.04 1.268-0.687 2.236 0.353 0.969 1.227 1.54 1.952 1.276l3.371-1.226-1.301-3.5" /></clipPath><clipPath
       id="clipPath352"
       clipPathUnits="userSpaceOnUse"><path
         id="path354"
         clip-rule="evenodd"
         d="m72.5 507.32h208.22v-159.25h-208.22v159.25z" /></clipPath><clipPath
       id="clipPath358"
       clipPathUnits="userSpaceOnUse"><path
         id="path360"
         d="m0 792h612v-792h-612v792z" /></clipPath><clipPath
       id="clipPath364"
       clipPathUnits="userSpaceOnUse"><path
         id="path366"
         d="m0.06 792h612v-792h-612v792z" /></clipPath><clipPath
       id="clipPath374"
       clipPathUnits="userSpaceOnUse"><path
         id="path376"
         d="m182.26 479.9c0.352 0.969 1.226 1.54 1.952 1.276 0.725-0.264 1.028-1.263 0.675-2.232s-1.227-1.54-1.952-1.276c-0.726 0.264-1.028 1.263-0.675 2.232" /></clipPath><clipPath
       id="clipPath436"
       clipPathUnits="userSpaceOnUse"><path
         id="path438"
         clip-rule="evenodd"
         d="m72.5 507.32h208.22v-159.25h-208.22v159.25z" /></clipPath><clipPath
       id="clipPath442"
       clipPathUnits="userSpaceOnUse"><path
         id="path444"
         d="m0 792h612v-792h-612v792z" /></clipPath><clipPath
       id="clipPath448"
       clipPathUnits="userSpaceOnUse"><path
         id="path450"
         d="m0.06 792h612v-792h-612v792z" /></clipPath><clipPath
       id="clipPath480"
       clipPathUnits="userSpaceOnUse"><path
         id="path482"
         d="m157.24 457.92c-3.272-0.225-7.374-0.197-10.436 0.857 0 0 0.025 10.903 4.422 15.28l13.479-4.958s0.446-4.634 8.428-5.933c4.875-0.793 6.991 2.38 6.991 2.38l14.882 3.816c4.397-4.376 4.422-15.28 4.422-15.28-4.566-1.572-11.404-0.861-14.414-0.433 0 0-1.749-14.59 3.689-17.059 0 0-16.582-13.226-38.646 0.857 0 0 2.266 5.667 7.183 20.473" /></clipPath><clipPath
       id="clipPath492"
       clipPathUnits="userSpaceOnUse"><path
         id="path494"
         clip-rule="evenodd"
         d="m72.5 507.32h208.22v-159.25h-208.22v159.25z" /></clipPath><clipPath
       id="clipPath498"
       clipPathUnits="userSpaceOnUse"><path
         id="path500"
         d="m0 792h612v-792h-612v792z" /></clipPath><clipPath
       id="clipPath504"
       clipPathUnits="userSpaceOnUse"><path
         id="path506"
         d="m0.06 792h612v-792h-612v792z" /></clipPath><clipPath
       id="clipPath528"
       clipPathUnits="userSpaceOnUse"><path
         id="path530"
         d="m261.41 441.79c0 0.682 1.521 1.235 3.42 1.235 1.9 0 3.44-0.553 3.44-1.235l-1.628-87.349h-2.404l-2.828 87.349" /></clipPath><clipPath
       id="clipPath540"
       clipPathUnits="userSpaceOnUse"><path
         id="path542"
         clip-rule="evenodd"
         d="m72.5 507.32h208.22v-159.25h-208.22v159.25z" /></clipPath><clipPath
       id="clipPath546"
       clipPathUnits="userSpaceOnUse"><path
         id="path548"
         d="m0 792h612v-792h-612v792z" /></clipPath><clipPath
       id="clipPath552"
       clipPathUnits="userSpaceOnUse"><path
         id="path554"
         d="m0.06 792h612v-792h-612v792z" /></clipPath><clipPath
       id="clipPath580"
       clipPathUnits="userSpaceOnUse"><path
         id="path582"
         d="m84.36 490.67c0 0.682 1.521 1.235 3.421 1.235 1.899 0 3.439-0.553 3.439-1.235l-1.257-99.712h-2.403l-3.2 99.712" /></clipPath><clipPath
       id="clipPath592"
       clipPathUnits="userSpaceOnUse"><path
         id="path594"
         clip-rule="evenodd"
         d="m72.5 507.32h208.22v-159.25h-208.22v159.25z" /></clipPath><clipPath
       id="clipPath598"
       clipPathUnits="userSpaceOnUse"><path
         id="path600"
         d="m0 792h612v-792h-612v792z" /></clipPath><clipPath
       id="clipPath604"
       clipPathUnits="userSpaceOnUse"><path
         id="path606"
         d="m0.06 792h612v-792h-612v792z" /></clipPath></defs><sodipodi:namedview
     id="namedview4"
     bordercolor="#666666"
     inkscape:pageshadow="2"
     guidetolerance="10"
     pagecolor="#ffffff"
     gridtolerance="10"
     inkscape:window-maximized="1"
     inkscape:zoom="2.3156645"
     objecttolerance="10"
     borderopacity="1"
     inkscape:current-layer="g12"
     inkscape:cx="38.144265"
     inkscape:cy="109.81857"
     inkscape:window-y="1"
     inkscape:window-x="4"
     inkscape:window-width="1916"
     showgrid="false"
     inkscape:pageopacity="0"
     inkscape:window-height="1035" /><g
     id="g12"
     inkscape:label="58294main_The.Brain.in.Space"
     inkscape:groupmode="layer"
     transform="matrix(1.25 0 0 -1.25 -90 634.78)"><rect
       style="opacity:0;fill:#c2b09b;fill-opacity:1;fill-rule:evenodd;stroke:#574c47;stroke-width:0.60879999;stroke-linecap:round;stroke-linejoin:round;stroke-miterlimit:3.86400008;stroke-dasharray:none;stroke-opacity:1"
       id="rect12247"
       width="306.78021"
       height="182.40984"
       x="1.1779969"
       y="-515.47595"
       transform="scale(1,-1)" /><g
       id="g196"
       style="fill:#b2987c;fill-opacity:1;stroke:#574c47;stroke-opacity:1"><g
         id="g198"
         clip-path="url(#clipPath200)"
         style="fill:#b2987c;fill-opacity:1;stroke:#574c47;stroke-opacity:1"><g
           id="g204"
           clip-path="url(#clipPath206)"
           style="fill:#b2987c;fill-opacity:1;stroke:#574c47;stroke-opacity:1"><g
             id="g210"
             clip-path="url(#clipPath212)"
             style="fill:#b2987c;fill-opacity:1;stroke:#574c47;stroke-opacity:1"><path
               id="path216"
               style="stroke:#574c47;stroke-miterlimit:3.864;stroke-width:0.609;fill:#ad8e6c;fill-opacity:1;stroke-opacity:1"
               d="m176.17 461.29-9.915 2.388c3.336 7.81-1.204 13.159-3.43 15.181-1.348-0.345-3.011 0.725-3.867 2.56-0.931 1.996-0.554 4.143 0.843 4.794 0.627 0.293 1.353 0.234 2.047-0.101l3.019 9.888 20.552-1.427c6.612-9.833 1.309-24.283-3.628-25.038s-5.621-8.245-5.621-8.245z" /><path
               id="path218"
               style="fill:#ad8e6c;fill-opacity:1;stroke:#574c47;stroke-width:0.60900003;stroke-miterlimit:3.86400008;stroke-opacity:1"
               d="m 183.75,475.2 c -0.979,-2.688 -4.631,-3.827 -8.145,-2.548 -0.5014,0.18249 -0.97311,0.40443 -1.41056,0.65863 -2.62837,1.52737 -4.01975,4.21991 -3.18044,6.52437"
               inkscape:connector-curvature="0"
               sodipodi:nodetypes="cssc" /><path
               id="path220"
               style="fill:#b2987c;fill-opacity:1;stroke:#574c47;stroke-opacity:1"
               d="m183.17 477.77-4.244 0.823c-0.592 0.496-0.521 2.244 0.319 2.926l3.925-3.749" /><path
               id="path222"
               style="fill:#b2987c;fill-opacity:1;stroke:#574c47;stroke-opacity:1"
               d="m182.93 477.67-3.335 1.214c-0.725 0.264-1.04 1.268-0.687 2.236 0.353 0.969 1.227 1.54 1.952 1.276l3.371-1.226-1.301-3.5" /></g></g></g></g><g
       id="g224"
       style="fill:#c0a990;fill-opacity:1"
       transform="translate(0.3268131,-0.04668759)"><g
         id="g226"
         clip-path="url(#clipPath228)"
         style="fill:#c0a990;fill-opacity:1"><path
           id="path232"
           style="fill:#c0a990;fill-opacity:1"
           d="m 179.49,483.42 5.452,-1.984 -0.212,-0.584 -5.453,1.985 0.213,0.583"
           inkscape:connector-curvature="0" /><path
           id="path234"
           style="fill:#c0a990;fill-opacity:1"
           d="m 179.27,482.81 0.212,0.584 5.452,-1.985 -0.212,-0.583 -5.452,1.984"
           inkscape:connector-curvature="0" /><path
           id="path236"
           style="fill:#c0a990;fill-opacity:1"
           d="m 179.26,482.78 0.212,0.583 5.452,-1.984 -0.212,-0.584 -5.452,1.985"
           inkscape:connector-curvature="0" /><path
           id="path238"
           style="fill:#c0a990;fill-opacity:1"
           d="m 179.25,482.76 0.212,0.584 5.452,-1.984 -0.212,-0.584 -5.452,1.984"
           inkscape:connector-curvature="0" /><path
           id="path240"
           style="fill:#c0a990;fill-opacity:1"
           d="m 179.24,482.74 0.212,0.583 5.453,-1.984 -0.213,-0.583 -5.452,1.984"
           inkscape:connector-curvature="0" /><path
           id="path242"
           style="fill:#c0a990;fill-opacity:1"
           d="m 179.24,482.71 0.212,0.583 5.453,-1.984 -0.213,-0.584 -5.452,1.985"
           inkscape:connector-curvature="0" /><path
           id="path244"
           style="fill:#c0a990;fill-opacity:1"
           d="m 179.23,482.69 0.212,0.584 5.453,-1.985 -0.213,-0.583 -5.452,1.984"
           inkscape:connector-curvature="0" /><path
           id="path246"
           style="fill:#c0a990;fill-opacity:1"
           d="m 179.22,482.66 0.213,0.583 5.452,-1.984 -0.212,-0.583 -5.453,1.984"
           inkscape:connector-curvature="0" /><path
           id="path248"
           style="fill:#c0a990;fill-opacity:1"
           d="m 179.21,482.64 0.213,0.583 5.452,-1.984 -0.212,-0.584 -5.453,1.985"
           inkscape:connector-curvature="0" /><path
           id="path250"
           style="fill:#c0a990;fill-opacity:1"
           d="m 179.2,482.61 0.213,0.584 5.452,-1.985 -0.212,-0.583 -5.453,1.984"
           inkscape:connector-curvature="0" /><path
           id="path252"
           style="fill:#c0a990;fill-opacity:1"
           d="m 179.19,482.59 0.212,0.583 5.452,-1.984 -0.212,-0.584 -5.452,1.985"
           inkscape:connector-curvature="0" /><path
           id="path254"
           style="fill:#c0a990;fill-opacity:1"
           d="m 179.18,482.56 0.212,0.584 5.453,-1.984 -0.213,-0.584 -5.452,1.984"
           inkscape:connector-curvature="0" /><path
           id="path256"
           style="fill:#c0a990;fill-opacity:1"
           d="m 179.17,482.54 0.212,0.583 5.453,-1.984 -0.213,-0.583 -5.452,1.984"
           inkscape:connector-curvature="0" /><path
           id="path258"
           style="fill:#c0a990;fill-opacity:1"
           d="m 179.16,482.52 0.212,0.583 5.453,-1.984 -0.213,-0.584 -5.452,1.985"
           inkscape:connector-curvature="0" /><path
           id="path260"
           style="fill:#c0a990;fill-opacity:1"
           d="m 179.16,482.49 0.212,0.584 5.453,-1.985 -0.213,-0.583 -5.452,1.984"
           inkscape:connector-curvature="0" /><path
           id="path262"
           style="fill:#c0a990;fill-opacity:1"
           d="m 179.15,482.47 0.213,0.583 5.452,-1.984 -0.212,-0.583 -5.453,1.984"
           inkscape:connector-curvature="0" /><path
           id="path264"
           style="fill:#c0a990;fill-opacity:1"
           d="m 179.14,482.44 0.213,0.583 5.452,-1.984 -0.212,-0.584 -5.453,1.985"
           inkscape:connector-curvature="0" /><path
           id="path266"
           style="fill:#c0a990;fill-opacity:1"
           d="m 179.13,482.42 0.213,0.584 5.452,-1.985 -0.212,-0.583 -5.453,1.984"
           inkscape:connector-curvature="0" /><path
           id="path268"
           style="fill:#c0a990;fill-opacity:1"
           d="m 179.12,482.4 0.212,0.583 5.452,-1.984 -0.212,-0.584 -5.452,1.985"
           inkscape:connector-curvature="0" /><path
           id="path270"
           style="fill:#c0a990;fill-opacity:1"
           d="m 179.11,482.37 0.212,0.583 5.452,-1.984 -0.212,-0.584 -5.452,1.985"
           inkscape:connector-curvature="0" /><path
           id="path272"
           style="fill:#c0a990;fill-opacity:1"
           d="m 179.1,482.35 0.212,0.584 5.453,-1.985 -0.213,-0.583 -5.452,1.984"
           inkscape:connector-curvature="0" /><path
           id="path274"
           style="fill:#c0a990;fill-opacity:1"
           d="m 179.09,482.32 0.212,0.583 5.453,-1.984 -0.213,-0.584 -5.452,1.985"
           inkscape:connector-curvature="0" /><path
           id="path276"
           style="fill:#c0a990;fill-opacity:1"
           d="m 179.08,482.3 0.213,0.584 5.452,-1.985 -0.212,-0.583 -5.453,1.984"
           inkscape:connector-curvature="0" /><path
           id="path278"
           style="fill:#c0a990;fill-opacity:1"
           d="m 179.08,482.27 0.213,0.583 5.452,-1.984 -0.212,-0.583 -5.453,1.984"
           inkscape:connector-curvature="0" /><path
           id="path280"
           style="fill:#c0a990;fill-opacity:1"
           d="m 179.07,482.25 0.213,0.583 5.452,-1.984 -0.212,-0.584 -5.453,1.985"
           inkscape:connector-curvature="0" /><path
           id="path282"
           style="fill:#c0a990;fill-opacity:1"
           d="m 179.06,482.22 0.212,0.584 5.452,-1.985 -0.212,-0.583 -5.452,1.984"
           inkscape:connector-curvature="0" /><path
           id="path284"
           style="fill:#c0a990;fill-opacity:1"
           d="m 179.05,482.2 0.212,0.583 5.452,-1.984 -0.212,-0.584 -5.452,1.985"
           inkscape:connector-curvature="0" /><path
           id="path286"
           style="fill:#c0a990;fill-opacity:1"
           d="m 179.04,482.18 0.212,0.583 5.453,-1.984 -0.213,-0.584 -5.452,1.985"
           inkscape:connector-curvature="0" /><path
           id="path288"
           style="fill:#c0a990;fill-opacity:1"
           d="m 179.03,482.15 0.212,0.584 5.453,-1.985 -0.213,-0.583 -5.452,1.984"
           inkscape:connector-curvature="0" /><path
           id="path290"
           style="fill:#c0a990;fill-opacity:1"
           d="m 179.02,482.13 0.212,0.583 5.453,-1.984 -0.213,-0.584 -5.452,1.985"
           inkscape:connector-curvature="0" /><path
           id="path292"
           style="fill:#c0a990;fill-opacity:1"
           d="m 179.01,482.1 0.213,0.584 5.452,-1.985 -0.212,-0.583 -5.453,1.984"
           inkscape:connector-curvature="0" /><path
           id="path294"
           style="fill:#c0a990;fill-opacity:1"
           d="m 179,482.08 0.213,0.583 5.452,-1.984 -0.212,-0.583 -5.453,1.984"
           inkscape:connector-curvature="0" /><path
           id="path296"
           style="fill:#c0a990;fill-opacity:1"
           d="m 179,482.05 0.213,0.583 5.452,-1.984 -0.212,-0.584 -5.453,1.985"
           inkscape:connector-curvature="0" /><path
           id="path298"
           style="fill:#c0a990;fill-opacity:1"
           d="m 178.99,482.03 0.212,0.584 5.452,-1.985 -0.212,-0.583 -5.452,1.984"
           inkscape:connector-curvature="0" /><path
           id="path300"
           style="fill:#c0a990;fill-opacity:1"
           d="m 178.98,482 0.212,0.583 5.452,-1.984 -0.212,-0.583 -5.452,1.984"
           inkscape:connector-curvature="0" /><path
           id="path302"
           style="fill:#c0a990;fill-opacity:1"
           d="m 178.97,481.98 0.212,0.583 5.453,-1.984 -0.213,-0.584 -5.452,1.985"
           inkscape:connector-curvature="0" /><path
           id="path304"
           style="fill:#c0a990;fill-opacity:1"
           d="m 178.96,481.96 0.212,0.584 5.453,-1.985 -0.213,-0.583 -5.452,1.984"
           inkscape:connector-curvature="0" /><path
           id="path306"
           style="fill:#c0a990;fill-opacity:1"
           d="m 178.95,481.93 0.213,0.583 5.452,-1.984 -0.213,-0.584 -5.452,1.985"
           inkscape:connector-curvature="0" /><path
           id="path308"
           style="fill:#c0a990;fill-opacity:1"
           d="m 178.94,481.91 0.212,0.583 5.453,-1.984 -0.212,-0.584 -5.453,1.985"
           inkscape:connector-curvature="0" /><path
           id="path310"
           style="fill:#c0a990;fill-opacity:1"
           d="m 178.93,481.88 0.213,0.583 5.452,-1.984 -0.212,-0.583 -5.453,1.984"
           inkscape:connector-curvature="0" /><path
           id="path312"
           style="fill:#c0a990;fill-opacity:1"
           d="m 178.92,481.86 0.212,0.583 5.452,-1.984 -0.212,-0.584 -5.452,1.985"
           inkscape:connector-curvature="0" /><path
           id="path314"
           style="fill:#c0a990;fill-opacity:1"
           d="m 178.92,481.83 0.212,0.584 5.452,-1.985 -0.212,-0.583 -5.452,1.984"
           inkscape:connector-curvature="0" /><path
           id="path316"
           style="fill:#c0a990;fill-opacity:1"
           d="m 178.91,481.81 0.212,0.583 5.452,-1.984 -0.212,-0.584 -5.452,1.985"
           inkscape:connector-curvature="0" /><path
           id="path318"
           style="fill:#c0a990;fill-opacity:1"
           d="m 178.9,481.79 0.212,0.583 5.453,-1.984 -0.213,-0.584 -5.452,1.985"
           inkscape:connector-curvature="0" /><path
           id="path320"
           style="fill:#c0a990;fill-opacity:1"
           d="m 178.89,481.76 0.212,0.584 5.453,-1.985 -0.213,-0.583 -5.452,1.984"
           inkscape:connector-curvature="0" /><path
           id="path322"
           style="fill:#c0a990;fill-opacity:1"
           d="m 178.88,481.74 0.212,0.583 5.453,-1.984 -0.212,-0.584 -5.453,1.985"
           inkscape:connector-curvature="0" /><path
           id="path324"
           style="fill:#c0a990;fill-opacity:1"
           d="m 178.87,481.71 0.213,0.584 5.452,-1.985 -0.212,-0.583 -5.453,1.984"
           inkscape:connector-curvature="0" /><path
           id="path326"
           style="fill:#c0a990;fill-opacity:1"
           d="m 178.86,481.69 0.213,0.583 5.452,-1.984 -0.212,-0.583 -5.453,1.984"
           inkscape:connector-curvature="0" /><path
           id="path328"
           style="fill:#c0a990;fill-opacity:1"
           d="m 178.85,481.66 0.212,0.583 5.452,-1.984 -0.212,-0.584 -5.452,1.985"
           inkscape:connector-curvature="0" /><path
           id="path330"
           style="fill:#c0a990;fill-opacity:1"
           d="m 178.84,481.64 0.212,0.584 5.452,-1.985 -0.212,-0.583 -5.452,1.984"
           inkscape:connector-curvature="0" /><path
           id="path332"
           style="fill:#c0a990;fill-opacity:1"
           d="m 178.84,481.62 0.212,0.583 5.453,-1.984 -0.213,-0.584 -5.452,1.985"
           inkscape:connector-curvature="0" /><path
           id="path334"
           style="fill:#c0a990;fill-opacity:1"
           d="m 178.83,481.59 0.212,0.583 5.453,-1.984 -0.213,-0.584 -5.452,1.985"
           inkscape:connector-curvature="0" /><path
           id="path336"
           style="fill:#c0a990;fill-opacity:1"
           d="m 178.82,481.57 0.212,0.584 5.453,-1.985 -0.213,-0.583 -5.452,1.984"
           inkscape:connector-curvature="0" /><path
           id="path338"
           style="fill:#c0a990;fill-opacity:1"
           d="m 178.81,481.54 0.213,0.583 5.452,-1.984 -0.212,-0.584 -5.453,1.985"
           inkscape:connector-curvature="0" /><path
           id="path340"
           style="fill:#c0a990;fill-opacity:1"
           d="m 178.8,481.52 0.213,0.584 5.452,-1.984 -0.212,-0.584 -5.453,1.984"
           inkscape:connector-curvature="0" /><path
           id="path342"
           style="fill:#c0a990;fill-opacity:1"
           d="m 178.79,481.49 0.213,0.584 5.452,-1.985 -0.212,-0.583 -5.453,1.984"
           inkscape:connector-curvature="0" /><path
           id="path344"
           style="fill:#c0a990;fill-opacity:1"
           d="m 178.78,481.47 0.212,0.583 5.452,-1.984 -0.212,-0.584 -5.452,1.985"
           inkscape:connector-curvature="0" /><path
           id="path346"
           style="fill:#c0a990;fill-opacity:1"
           d="m 178.99,482.03 5.452,-1.985 -0.212,-0.583 -5.452,1.984 0.212,0.584"
           inkscape:connector-curvature="0" /></g></g><g
       id="g348"><g
         id="g350"
         clip-path="url(#clipPath352)"><g
           id="g356"
           clip-path="url(#clipPath358)"><g
             id="g362"
             clip-path="url(#clipPath364)"><path
               id="path368"
               style="fill:#ffffff"
               d="m182.26 479.9c0.352 0.969 1.226 1.54 1.952 1.276 0.725-0.264 1.028-1.263 0.675-2.232s-1.227-1.54-1.952-1.276c-0.726 0.264-1.028 1.263-0.675 2.232" /></g></g></g></g><g
       id="g370"
       style="fill:#c0a990;fill-opacity:1"
       transform="matrix(1.0958695,0,0,1.0385117,-17.599103,-18.510041)"><g
         id="g372"
         clip-path="url(#clipPath374)"
         style="fill:#c0a990;fill-opacity:1"><path
           id="path378"
           style="fill:#c0a990;fill-opacity:1"
           d="m 185.42,480.16 -3.881,-1.1 -0.376,1.802 3.746,1.079 0.511,-1.781"
           inkscape:connector-curvature="0" /><path
           id="path380"
           style="fill:#c0a990;fill-opacity:1"
           d="m 185.44,480.08 -3.878,-1.103 -0.377,1.802 3.746,1.079 0.509,-1.778"
           inkscape:connector-curvature="0" /><path
           id="path382"
           style="fill:#c0a990;fill-opacity:1"
           d="m 185.46,479.99 -3.876,-1.107 -0.376,1.803 3.746,1.079 0.506,-1.775"
           inkscape:connector-curvature="0" /><path
           id="path384"
           style="fill:#c0a990;fill-opacity:1"
           d="m 185.47,479.91 -3.873,-1.11 -0.377,1.803 3.746,1.079 0.504,-1.772"
           inkscape:connector-curvature="0" /><path
           id="path386"
           style="fill:#c0a990;fill-opacity:1"
           d="m 185.49,479.82 -3.871,-1.113 -0.376,1.802 3.745,1.08 0.502,-1.769"
           inkscape:connector-curvature="0" /><path
           id="path388"
           style="fill:#c0a990;fill-opacity:1"
           d="m 185.51,479.74 -3.868,-1.116 -0.377,1.802 3.746,1.079 0.499,-1.765"
           inkscape:connector-curvature="0" /><path
           id="path390"
           style="fill:#c0a990;fill-opacity:1"
           d="m 185.52,479.66 -3.867,-1.119 -0.377,1.802 3.746,1.079 0.498,-1.762"
           inkscape:connector-curvature="0" /><path
           id="path392"
           style="fill:#c0a990;fill-opacity:1"
           d="m 185.54,479.57 -3.864,-1.122 -0.377,1.802 3.746,1.079 0.495,-1.759"
           inkscape:connector-curvature="0" /><path
           id="path394"
           style="fill:#c0a990;fill-opacity:1"
           d="m 185.56,479.49 -3.862,-1.126 -0.377,1.803 3.746,1.079 0.493,-1.756"
           inkscape:connector-curvature="0" /><path
           id="path396"
           style="fill:#c0a990;fill-opacity:1"
           d="m 185.58,479.4 -3.859,-1.128 -0.377,1.802 3.746,1.08 0.49,-1.754"
           inkscape:connector-curvature="0" /><path
           id="path398"
           style="fill:#c0a990;fill-opacity:1"
           d="m 185.59,479.32 -3.857,-1.131 -0.377,1.802 3.746,1.08 0.488,-1.751"
           inkscape:connector-curvature="0" /><path
           id="path400"
           style="fill:#c0a990;fill-opacity:1"
           d="m 185.61,479.24 -3.855,-1.134 -0.376,1.802 3.746,1.079 0.485,-1.747"
           inkscape:connector-curvature="0" /><path
           id="path402"
           style="fill:#c0a990;fill-opacity:1"
           d="m 185.63,479.15 -3.852,-1.137 -0.377,1.802 3.746,1.079 0.483,-1.744"
           inkscape:connector-curvature="0" /><path
           id="path404"
           style="fill:#c0a990;fill-opacity:1"
           d="m 185.64,479.07 -3.85,-1.14 -0.376,1.802 3.746,1.079 0.48,-1.741"
           inkscape:connector-curvature="0" /><path
           id="path406"
           style="fill:#c0a990;fill-opacity:1"
           d="m 185.66,478.98 -3.847,-1.144 -0.377,1.803 3.746,1.079 0.478,-1.738"
           inkscape:connector-curvature="0" /><path
           id="path408"
           style="fill:#c0a990;fill-opacity:1"
           d="m 185.68,478.9 -3.845,-1.147 -0.376,1.803 3.746,1.079 0.475,-1.735"
           inkscape:connector-curvature="0" /><path
           id="path410"
           style="fill:#c0a990;fill-opacity:1"
           d="m 185.7,478.82 -3.842,-1.15 -0.377,1.802 3.746,1.08 0.473,-1.732"
           inkscape:connector-curvature="0" /><path
           id="path412"
           style="fill:#c0a990;fill-opacity:1"
           d="m 185.71,478.73 -3.841,-1.153 -0.377,1.802 3.746,1.079 0.472,-1.728"
           inkscape:connector-curvature="0" /><path
           id="path414"
           style="fill:#c0a990;fill-opacity:1"
           d="m 185.73,478.65 -3.838,-1.156 -0.377,1.802 3.746,1.079 0.469,-1.725"
           inkscape:connector-curvature="0" /><path
           id="path416"
           style="fill:#c0a990;fill-opacity:1"
           d="m 185.75,478.56 -3.836,-1.159 -0.377,1.802 3.746,1.079 0.467,-1.722"
           inkscape:connector-curvature="0" /><path
           id="path418"
           style="fill:#c0a990;fill-opacity:1"
           d="m 185.76,478.48 -3.833,-1.163 -0.377,1.803 3.746,1.079 0.464,-1.719"
           inkscape:connector-curvature="0" /><path
           id="path420"
           style="fill:#c0a990;fill-opacity:1"
           d="m 185.78,478.4 -3.831,-1.166 -0.377,1.802 3.746,1.08 0.462,-1.716"
           inkscape:connector-curvature="0" /><path
           id="path422"
           style="fill:#c0a990;fill-opacity:1"
           d="m 185.8,478.31 -3.829,-1.168 -0.376,1.802 3.746,1.08 0.459,-1.714"
           inkscape:connector-curvature="0" /><path
           id="path424"
           style="fill:#c0a990;fill-opacity:1"
           d="m 185.82,478.23 -3.826,-1.171 -0.377,1.802 3.746,1.079 0.457,-1.71"
           inkscape:connector-curvature="0" /><path
           id="path426"
           style="fill:#c0a990;fill-opacity:1"
           d="m 185.83,478.14 -3.824,-1.174 -0.376,1.802 3.746,1.079 0.454,-1.707"
           inkscape:connector-curvature="0" /><path
           id="path428"
           style="fill:#c0a990;fill-opacity:1"
           d="m 185.85,478.06 -3.821,-1.178 -0.377,1.803 3.746,1.079 0.452,-1.704"
           inkscape:connector-curvature="0" /><path
           id="path430"
           style="fill:#c0a990;fill-opacity:1"
           d="m 185.87,477.97 -3.82,-1.181 -0.376,1.803 3.746,1.079 0.45,-1.701"
           inkscape:connector-curvature="0" /></g></g><g
       clip-path="url(#clipPath436)"
       id="g434"><path
         inkscape:connector-curvature="0"
         d="m 162.29,483.47 0.341,-2.409 c 0,0 -0.209,2.361 -2.426,2.331 -2.217,-0.031 2.085,0.078 2.085,0.078"
         style="fill:#a7a5a6;fill-rule:evenodd"
         id="path452" /><path
         inkscape:connector-curvature="0"
         d="m 174.22,486.95 c 0.081,0.463 0.523,0.772 0.986,0.69 0.463,-0.082 0.772,-0.523 0.69,-0.986 -0.081,-0.463 -0.523,-0.773 -0.986,-0.691 -0.463,0.082 -0.772,0.524 -0.69,0.987 z"
         style="fill:#231f20;stroke:#231f20;stroke-width:0.60900003;stroke-miterlimit:3.86400008"
         id="path454" /><path
         inkscape:connector-curvature="0"
         d="m 183.79,485.26 c 0.082,0.463 0.524,0.772 0.987,0.691 0.463,-0.082 0.772,-0.524 0.69,-0.987 -0.081,-0.463 -0.523,-0.772 -0.986,-0.69 -0.463,0.081 -0.772,0.523 -0.691,0.986 z"
         style="fill:#231f20;stroke:#231f20;stroke-width:0.60900003;stroke-miterlimit:3.86400008"
         id="path456" /><path
         inkscape:connector-curvature="0"
         d="m 160.17,487.12 c 2.362,-0.184 2.181,-2.271 2.181,-2.271 l 2.278,-0.642 c 0.484,6.246 2.617,8.716 2.617,8.716 4.511,-1.568 10.747,0.122 10.747,0.122 7.669,0.987 9.561,-3.77 9.561,-3.77 0,0 5.35,6.313 -0.114,7.277 0,0 1.016,4.069 -6.984,3.496 0,0 -21.933,8.703 -20.286,-12.928 z"
         style="fill:#5e5c5c;fill-opacity:1;stroke:#7b6f6a;stroke-width:0.60900003;stroke-miterlimit:3.86400008;stroke-opacity:1"
         id="path458" /><path
         inkscape:connector-curvature="0"
         d="m 262.48,397.29 c 0,0 -105.55,-56.651 -171.28,40.428"
         style="fill:none;stroke:#231f20;stroke-width:2.43700004;stroke-miterlimit:3.86400008"
         id="path460" /><path
         inkscape:connector-curvature="0"
         d="m 185.34,424.9 c 0,0 3.85,-8.662 4.675,-14.573 0.83,-5.955 -0.53,-11.959 -0.53,-15.406 0,-8.595 5.603,-10.855 5.603,-19.449 0,-2.248 -2.579,-3.24 -4.827,-3.24 -4.363,0 -4.76,5.289 -6.149,9.454 -0.727,2.182 -3.222,1.136 -3.222,3.45 0,4.43 4.232,6.149 4.232,10.578 0,3.213 0.755,7.774 0.036,12.658 -0.99,6.717 -5.48,14.448 -6.003,16.342 2.645,-0.529 3.673,-0.674 6.185,0.186 z"
         style="fill:#b2987c;fill-opacity:1;stroke:#574c47;stroke-width:0.60900003;stroke-miterlimit:3.86400008;stroke-opacity:1"
         id="path462" /><path
         inkscape:connector-curvature="0"
         d="m 219.43,477.94 c 0.99,0.222 1.038,0.447 0.914,1.699 -0.267,2.701 -7.479,2.125 -7.479,2.125 0.372,2.054 4.503,3.908 2.874,5.511 -0.755,0.744 -2.343,1.737 -7.081,-5.003 0,0 -2.879,4.223 -5.321,1.508 0,0 -1.378,-1.483 1.23,-1.98 0,0 2.536,-1.576 2.495,-3.019 -0.041,-1.444 0.399,-3.134 0.399,-3.134 0,0 -7.956,-10.004 -13.143,-11.099 l -0.184,-5.334 c 8.47,3.224 16.43,14.624 16.43,14.624 0.946,-0.358 1.997,0.478 1.997,0.478 0,0 2.935,-1.239 4.001,-2.727 0.848,-0.141 2.393,-0.633 2.261,1.177 -0.044,0.602 -0.589,1.605 -0.589,1.605 1.296,-0.151 2.195,-0.017 2.764,0.815 0.683,0.999 0.191,2.229 -1.568,2.754"
         style="fill:#e9e9e9"
         id="path464" /><path
         inkscape:connector-curvature="0"
         d="m 213.8,478.4 c 0,0 2.254,0.805 4.098,-0.737 1.206,-1.009 3.055,0.648 2.449,2.274 -0.777,2.085 -7.479,1.832 -7.479,1.832 0.324,2.689 4.649,3.811 2.874,5.511 -0.765,0.733 -2.343,1.737 -7.081,-5.003 0,0 -2.879,4.223 -5.321,1.508 0,0 -1.378,-1.483 1.23,-1.98 0,0 2.536,-1.576 2.495,-3.019 -0.041,-1.444 0.399,-3.134 0.399,-3.134 0,0 -7.956,-10.004 -13.143,-11.099 l -0.184,-5.334 c 8.47,3.224 16.43,14.624 16.43,14.624 0.946,-0.358 1.997,0.478 1.997,0.478 0,0 3.148,-0.368 3.627,-2.207 1.033,-1.04 2.487,-0.403 2.829,0.679 0.241,0.758 -0.673,1.924 -0.673,1.924"
         style="fill:#ad8e6c;fill-opacity:1;stroke:#574c47;stroke-width:0.60900003;stroke-miterlimit:3.86400008;stroke-opacity:1"
         id="path466" /><path
         inkscape:connector-curvature="0"
         d="m 150.85,465.02 c 0,0 -35.394,1.195 -28.215,21.255 0.172,0.66 -0.729,0.771 -0.46,1.475 0.931,2.436 3.841,1.451 3.913,-2.707 0.073,-4.157 2.082,-3.706 2.94,-1.122 0.859,2.583 2.456,2.503 3.421,1.125 0,0 -5.094,-7.19 0.078,-11.643 5.172,-4.453 18.929,-4.949 18.929,-4.949 l -0.606,-3.434 z"
         style="fill:#b2987c;fill-opacity:1;stroke:#574c47;stroke-width:0.60900003;stroke-miterlimit:3.86400008;stroke-opacity:1"
         id="path468" /><path
         inkscape:connector-curvature="0"
         d="m 161.99,422.31 c -8.399,-10.248 -4.751,-27.118 -4.751,-27.118 0,0 -14.855,-4.549 -13.136,-12.016 1.72,-7.467 8.59,0.105 12.002,1.311 3.413,1.206 13.488,4.307 6.498,10.643 0,0 -3.032,15.85 3.928,21.504 1.96,4.347 -4.541,5.676 -4.541,5.676 z"
         style="fill:#b2987c;fill-opacity:1;stroke:#574c47;stroke-width:0.60900003;stroke-miterlimit:3.86400008;stroke-opacity:1"
         id="path470" /><path
         inkscape:connector-curvature="0"
         d="m 155.36,435.45 -2.892,-14.427 c 0,0 2.948,-6.495 18.906,-4.677 l 0.595,6.379 2.828,-6.417 c 0,0 5.193,-2.801 15.227,7.613 l -6.309,12.128 -28.355,-0.599 z"
         style="fill:#ffffff;stroke:#4d644b;stroke-width:0.60900003;stroke-miterlimit:3.86400008;stroke-opacity:1"
         id="path472" /><path
         inkscape:connector-curvature="0"
         d="m 157.24,457.92 c -3.272,-0.225 -7.374,-0.197 -10.436,0.857 0,0 0.025,10.903 4.422,15.28 l 13.479,-4.958 c 0,0 0.446,-4.634 8.428,-5.933 4.875,-0.793 6.991,2.38 6.991,2.38 l 14.882,3.816 c 4.397,-4.376 4.422,-15.28 4.422,-15.28 -4.566,-1.572 -11.404,-0.861 -14.414,-0.433 0,0 -1.749,-14.59 3.689,-17.059 0,0 -16.582,-13.226 -38.646,0.857 0,0 2.266,5.667 7.183,20.473"
         style="fill:#5e69bc;fill-opacity:1"
         id="path474" /></g><g
       id="g476"><g
         id="g478"
         clip-path="url(#clipPath480)"><path
           id="path484"
           style="stroke:#ffffff;stroke-miterlimit:3.864;stroke-width:1.828;fill:none"
           d="m194.97 450.15s3.399 10.416-5.668 22.343m-38.038-17.648s-3.4 10.416 5.668 22.343" /><path
           id="path486"
           style="stroke:#ffffff;stroke-miterlimit:3.864;stroke-width:2.437;fill:none"
           d="m162.33 472.65s0-9.107 9.75-10.544c9.751-1.437 11.337 6.462 11.337 6.462" /></g></g><g
       id="g488"><g
         id="g490"
         clip-path="url(#clipPath492)"><g
           id="g496"
           clip-path="url(#clipPath498)"><g
             id="g502"
             clip-path="url(#clipPath504)"><path
               id="path508"
               style="stroke:#656263;stroke-miterlimit:3.864;stroke-width:0.609;fill:none"
               d="m157.24 457.92c-3.272-0.225-7.374-0.197-10.436 0.857 0 0 0.025 10.903 4.422 15.28l13.479-4.958s0.446-4.634 8.428-5.933c4.875-0.793 6.991 2.38 6.991 2.38l14.882 3.816c4.397-4.376 4.422-15.28 4.422-15.28-4.566-1.572-11.404-0.861-14.414-0.433 0 0-1.749-14.59 3.689-17.059 0 0-16.582-13.226-38.646 0.857 0 0 2.266 5.667 7.183 20.473z" /><path
               id="path510"
               style="fill-rule:evenodd;fill:#ffffff"
               d="m164.54 451.25c0.235 1.853 0.963 2.226 1.76 2.086 0.818-0.144 1.419-0.752 1.006-2.574l-1.315-7.459c-0.239-1.875-1.011-2.241-1.83-2.096-0.797 0.14-1.353 0.74-0.937 2.584l1.316 7.459zm-4.414-6.913c-0.621-3.519 0.839-5.077 3.628-5.569 2.811-0.495 4.715 0.47 5.336 3.989l1.315 7.459c0.621 3.519-0.843 5.055-3.632 5.547-2.811 0.495-4.712-0.447-5.332-3.967l-1.315-7.459" /><path
               id="path512"
               style="stroke:#656263;stroke-miterlimit:3.864;stroke-width:1.523;fill:none"
               d="m164.54 451.25c0.235 1.853 0.963 2.226 1.76 2.086 0.818-0.144 1.419-0.752 1.006-2.574l-1.315-7.459c-0.239-1.875-1.011-2.241-1.83-2.096-0.797 0.14-1.353 0.74-0.937 2.584l1.316 7.459zm-4.414-6.913c-0.621-3.519 0.839-5.077 3.628-5.569 2.811-0.495 4.715 0.47 5.336 3.989l1.315 7.459c0.621 3.519-0.843 5.055-3.632 5.547-2.811 0.495-4.712-0.447-5.332-3.967l-1.315-7.459z" /><path
               id="path514"
               style="stroke:#656263;stroke-miterlimit:3.864;stroke-width:1.523;fill:#ffffff"
               d="m174.07 437.29 3.099-0.547 2.927 16.601-2.28 0.402c-1.022-2.171-2.916-2.43-5.067-2.074l-0.39-2.213 3.74-0.66-2.029-11.509z" /><path
               id="path516"
               style="fill-rule:evenodd;fill:#ffffff"
               d="m164.54 451.25c0.235 1.853 0.963 2.226 1.76 2.086 0.818-0.144 1.419-0.752 1.006-2.574l-1.315-7.459c-0.239-1.875-1.011-2.241-1.83-2.096-0.797 0.14-1.353 0.74-0.937 2.584l1.316 7.459zm-4.414-6.913c-0.621-3.519 0.839-5.077 3.628-5.569 2.811-0.495 4.715 0.47 5.336 3.989l1.315 7.459c0.621 3.519-0.843 5.055-3.632 5.547-2.811 0.495-4.712-0.447-5.332-3.967l-1.315-7.459" /><path
               id="path518"
               style="fill:#ffffff"
               d="m174.07 437.29 3.099-0.547 2.927 16.601-2.28 0.402c-1.022-2.171-2.916-2.43-5.067-2.074l-0.39-2.213 3.74-0.66-2.029-11.509" /><path
               id="path520"
               style="stroke:#231f20;stroke-miterlimit:3.864;stroke-width:2.437;fill:#ffffff"
               d="m261.24 397.77c0 1.078 1.9 1.952 4.243 1.952s4.243-0.874 4.243-1.952-1.9-1.952-4.243-1.952-4.243 0.874-4.243 1.952z" /><path
               id="path522"
               style="fill:#231f20"
               d="m261.41 441.79c0 0.682 1.521 1.235 3.42 1.235 1.9 0 3.44-0.553 3.44-1.235l-1.628-87.349h-2.404l-2.828 87.349" /></g></g></g></g><g
       id="g524"><g
         id="g526"
         clip-path="url(#clipPath528)"><path
           id="path532"
           style="stroke:#ffffff;stroke-miterlimit:3.864;stroke-width:3.047;fill:none"
           d="m257.18 388.55 14.865 14.864m-14.865-22.177 14.865 14.864m-14.865-22.177 14.865 14.864m-14.865-22.177 14.865 14.864m-14.865-22.177 14.865 14.864m-14.865-22.177 14.865 14.864m-14.865-22.177 14.865 14.864m-14.865 72.891 14.865 14.864m-14.865-22.177 14.865 14.864m-14.865-22.177 14.865 14.864m-14.865-22.177 14.865 14.864m-14.865-22.176 14.865 14.863m-14.865-22.176 14.865 14.864" /><path
           id="path534"
           style="stroke:#231f20;stroke-miterlimit:3.864;stroke-width:0.305;fill:#231f20"
           d="m268.28 441.79c0-0.683-1.549-1.236-3.449-1.236-1.899 0-3.439 0.553-3.439 1.236v1.447h6.772l0.116-1.447z" /></g></g><g
       id="g544"
       clip-path="url(#clipPath546)"><g
         id="g550"
         clip-path="url(#clipPath552)"><path
           id="path556"
           style="fill:none;stroke:#231f20;stroke-width:0.60900003;stroke-miterlimit:3.86400008"
           d="m 261.41,441.79 c 0,0.682 1.521,1.235 3.42,1.235 1.9,0 3.44,-0.553 3.44,-1.235 l -1.628,-87.349 -2.404,0 -2.828,87.349 z"
           inkscape:connector-curvature="0" /><path
           id="path558"
           style="fill:#3f87dd;fill-rule:evenodd;stroke:#6f8bc0;stroke-width:0.125;stroke-miterlimit:3.86400008;stroke-opacity:1;fill-opacity:1"
           d="m 187.8,459.88 1.072,2.109 c 0,0 -1.15,-1.997 0.633,-3.209 1.783,-1.212 -1.705,1.1 -1.705,1.1 z"
           inkscape:connector-curvature="0" /><path
           id="path562"
           style="fill:#a7a5a6;stroke:#a7a5a6;stroke-width:0.60900003;stroke-miterlimit:3.86400008"
           d="m 154.28,417.58 c 0.035,0.042 0.118,0.031 0.184,-0.024 0.066,-0.056 0.091,-0.135 0.056,-0.177 -0.035,-0.042 -0.117,-0.031 -0.184,0.025 -0.066,0.055 -0.091,0.134 -0.056,0.176 z"
           inkscape:connector-curvature="0" /><path
           id="path564"
           style="fill:#698b63;stroke:#7b7979;stroke-width:0.60900003;stroke-miterlimit:3.86400008;fill-opacity:1"
           d="m 151.3,422.61 c 0,0 5.249,-6.166 21.206,-4.347 l -1.081,-4.899 c -15.958,-1.818 -22.499,4.874 -22.499,4.874 l 2.374,4.372 z"
           inkscape:connector-curvature="0" /><path
           id="path560"
           style="fill:#ad8e6c;fill-opacity:1;stroke:#574c47;stroke-width:0.60879999;stroke-linecap:round;stroke-miterlimit:3.86400008;stroke-dasharray:none;stroke-opacity:1"
           d="m 213.10314,478.65373 c 0,0 3.53086,-2.42773 5.75786,-4.31573 1.99616,-0.97881 2.63902,0.43648 2.45672,1.60067 0.683,0.999 -4.69246,3.29162 -6.45246,3.81762"
           inkscape:connector-curvature="0"
           sodipodi:nodetypes="cccc" /><path
           id="path566"
           style="fill:none;stroke:#231f20;stroke-width:0.60900003;stroke-miterlimit:3.86400008"
           d="m 218.5,486.31 c 0,0 5.628,-0.724 6.819,-6.153 m -1.348,5.794 c 1.56,-0.858 3.266,-2.396 3.863,-5.12 m 40.442,-39.044 c 0,-0.683 -1.549,-1.236 -3.449,-1.236 -1.899,0 -3.439,0.553 -3.439,1.236"
           inkscape:connector-curvature="0" /><path
           id="path568"
           style="fill:#ffffff;stroke:#231f20;stroke-width:0.60900003;stroke-miterlimit:3.86400008"
           d="m 261.02,445.42 c 0,2.103 1.704,3.807 3.806,3.807 2.103,0 3.807,-1.704 3.807,-3.807 0,-2.102 -1.704,-3.806 -3.807,-3.806 -2.102,0 -3.806,1.704 -3.806,3.806 z"
           inkscape:connector-curvature="0" /><path
           id="path570"
           style="fill:none;stroke:#231f20;stroke-width:2.43700004;stroke-miterlimit:3.86400008"
           d="m 269.74,397.77 c 0,-1.078 -1.909,-1.952 -4.252,-1.952 -2.343,0 -4.243,0.874 -4.243,1.952"
           inkscape:connector-curvature="0" /><path
           id="path572"
           style="fill:#ffffff;stroke:#231f20;stroke-width:2.43700004;stroke-miterlimit:3.86400008"
           d="m 84.198,438.95 c 0,1.078 1.9,1.952 4.243,1.952 2.344,0 4.243,-0.874 4.243,-1.952 0,-1.078 -1.899,-1.952 -4.243,-1.952 -2.343,0 -4.243,0.874 -4.243,1.952 z"
           inkscape:connector-curvature="0" /><path
           id="path574"
           style="fill:#231f20"
           d="m 84.36,490.67 c 0,0.682 1.521,1.235 3.421,1.235 1.899,0 3.439,-0.553 3.439,-1.235 l -1.257,-99.712 -2.403,0 -3.2,99.712"
           inkscape:connector-curvature="0" /></g></g><g
       id="g576"><g
         id="g578"
         clip-path="url(#clipPath580)"><path
           id="path584"
           style="stroke:#ffffff;stroke-miterlimit:3.864;stroke-width:3.047;fill:none"
           d="m80.135 437.43 14.864 14.864m-14.864-22.17 14.864 14.86m-14.864-22.17 14.864 14.86m-14.864-22.17 14.864 14.86m-14.864-22.18 14.864 14.87m-14.864-22.18 14.864 14.86m-14.864-22.177 14.864 14.864m-14.864-22.177 14.864 14.864m-14.864 80.203 14.864 14.864m-14.864-22.15 14.864 14.86m-14.864-22.17 14.864 14.86m-14.864-22.18 14.864 14.87m-14.864-22.18 14.864 14.86m-14.864-22.177 14.864 14.864" /><path
           id="path586"
           style="stroke:#231f20;stroke-miterlimit:3.864;stroke-width:0.305;fill:#231f20"
           d="m91.23 490.67c0-0.682-1.55-1.236-3.449-1.236-1.9 0-3.44 0.554-3.44 1.236v1.447h6.773l0.116-1.447z" /></g></g><g
       id="g588"><g
         id="g590"
         clip-path="url(#clipPath592)"><g
           id="g596"
           clip-path="url(#clipPath598)"><g
             id="g602"
             clip-path="url(#clipPath604)"><path
               id="path608"
               style="stroke:#231f20;stroke-miterlimit:3.864;stroke-width:0.609;fill:none"
               d="m84.36 490.67c0 0.682 1.521 1.235 3.421 1.235 1.899 0 3.439-0.553 3.439-1.235l-1.257-99.712h-2.403l-3.2 99.712z" /><path
               id="path610"
               style="stroke:#231f20;stroke-miterlimit:3.864;stroke-width:0.609;fill:#ffffff"
               d="m83.974 494.31c0 2.102 1.704 3.806 3.807 3.806 2.102 0 3.807-1.704 3.807-3.806 0-2.103-1.705-3.807-3.807-3.807-2.103 0-3.807 1.704-3.807 3.807z" /><path
               id="path612"
               style="stroke:#231f20;stroke-miterlimit:3.864;stroke-width:2.437;fill:none"
               d="m92.694 438.95c0-1.078-1.909-1.952-4.253-1.952-2.343 0-4.243 0.874-4.243 1.952" /><path
               id="path614"
               style="stroke:#7b7979;stroke-miterlimit:3.864;stroke-width:0.609;fill:#698b63;fill-opacity:1"
               d="m173.27 418.05s5.339 0.992 17.029 9.506l3.084-4.294c-11.68-8.52-19.24-9.25-19.24-9.25l-0.866 4.034z" /><path
               id="path616"
               style="stroke:#656263;stroke-miterlimit:3.864;stroke-width:0.609;fill:none"
               d="m139.67 381.51c2.204-4.653 6.45-6.286 11.593-6.286m-12.573-0.021c2.939-2.939 3.756-1.796 6.287-2.531m102.26 9.062c-10.226-3.918-22.533-2.857-26.697-2.857m28.106 7.858c-6.45-2.857-10.45-4.654-17.553-5.307" /></g></g></g></g></g><metadata
     id="metadata11642"><rdf:RDF><cc:Work><dc:format>image/svg+xml</dc:format><dc:type
           rdf:resource="http://purl.org/dc/dcmitype/StillImage" /><cc:license
           rdf:resource="http://creativecommons.org/publicdomain/zero/1.0/" /><dc:publisher><cc:Agent
             rdf:about="http://openclipart.org/"><dc:title>Openclipart</dc:title></cc:Agent></dc:publisher><dc:title>58294main_The.Brain.in.Space-page-74-kid-jumprope</dc:title><dc:date></dc:date><dc:description>colour remix by j4p4n</dc:description><dc:source></dc:source><dc:creator><cc:Agent><dc:title>rejon</dc:title></cc:Agent></dc:creator><dc:subject><rdf:Bag /></dc:subject></cc:Work><cc:License
         rdf:about="http://creativecommons.org/publicdomain/zero/1.0/"><cc:permits
           rdf:resource="http://creativecommons.org/ns#Reproduction" /><cc:permits
           rdf:resource="http://creativecommons.org/ns#Distribution" /><cc:permits
           rdf:resource="http://creativecommons.org/ns#DerivativeWorks" /></cc:License></rdf:RDF></metadata></svg>